inDegrees=yes
name=ik_lifting_orientations
DataType=double
version=3
OpenSimVersion=4.5-2024-01-10-34fd6af
endheader
time	pelvis_tilt	pelvis_list	pelvis_rotation	pelvis_tx	pelvis_ty	pelvis_tz	hip_flexion_r	hip_adduction_r	hip_rotation_r	knee_angle_r	knee_angle_r_beta	ankle_angle_r	subtalar_angle_r	mtp_angle_r	hip_flexion_l	hip_adduction_l	hip_rotation_l	knee_angle_l	knee_angle_l_beta	ankle_angle_l	subtalar_angle_l	mtp_angle_l	lumbar_extension	lumbar_bending	lumbar_rotation	arm_flex_r	arm_add_r	arm_rot_r	elbow_flex_r	pro_sup_r	wrist_flex_r	wrist_dev_r	arm_flex_l	arm_add_l	arm_rot_l	elbow_flex_l	pro_sup_l	wrist_flex_l	wrist_dev_l
0.65	0.5946199001309458	37.07732931326226	-92.38419449065358	0	0.9399999998679526	0	45.1287396234165	-10.7913066382614	0	60.15815426834723	1.04995786390534	-5.140673036249424	0	0	45.1287396234165	-10.7913066382614	0	60.15815426834723	1.04995786390534	-5.140673036249424	0	0	10.18729392962274	-6.252873678982057	16.03860008350928	20.04213209107868	-25.16454715053171	-22.01392319376275	24.14920405798938	2.636373893930494	0	0	0	-9.576672571392031	0	87.41953306116291	2.636373893930494	0	0
0.66	0.5197498901251237	37.39640285346747	-92.54937822459587	0	0.9399999998679526	0	45.12866539455891	-10.78971574445401	0	60.15808264419202	1.049956613828007	-5.140304467814026	0	0	45.12866539455891	-10.78971574445401	0	60.15808264419202	1.049956613828007	-5.140304467814026	0	0	9.301668769536393	-6.938001870397351	17.39265808699793	20.70777480700165	-25.53138658445053	-23.90231485618146	24.18969920265231	2.635314715159261	0	0	0	-9.57827952741868	0	87.42056967453583	2.635314715159261	0	0
0.67	0.4823679111169056	37.66130953779952	-92.70487640742418	0	0.9399999998679526	0	45.12858849610817	-10.788064546974	0	60.15800862047244	1.049955321870376	-5.139921901468292	0	0	45.12858849610817	-10.788064546974	0	60.15800862047244	1.049955321870376	-5.139921901468292	0	0	9.035041534872532	-7.285282743304834	18.09781829003852	20.75732904763115	-25.7927818276276	-25.2665933881164	24.43588620458932	2.634218319454053	0	0	0	-9.579941770374548	0	87.42164271179855	2.634218319454053	0	0
0.68	0.4896835056052238	37.7034088263163	-93.00748198688765	0	0.9399999998679526	0	45.12853692239531	-10.7869601868285	0	60.15795890834516	1.049954454230077	-5.139666240740555	0	0	45.12853692239531	-10.7869601868285	0	60.15795890834516	1.049954454230077	-5.139666240740555	0	0	8.552652198441777	-7.615522778551521	18.79997412570108	21.03910720296286	-26.03349615047623	-26.09959928524778	24.47582052664341	2.633482539186097	0	0	0	-9.581057831604921	0	87.42236281653764	2.633482539186097	0	0
0.6899999999999999	0.4754968189416414	37.65044032837653	-92.99882216118144	0	0.9399999998679526	0	45.12849376169729	-10.78603596145694	0	60.15791733499221	1.049953728638187	-5.139452328735341	0	0	45.12849376169729	-10.78603596145694	0	60.15791733499221	1.049953728638187	-5.139452328735341	0	0	7.924283424201225	-7.90273031350865	18.928833361121	21.32765806985383	-26.17367405783158	-26.68317101787374	24.63190205981601	2.632866899961133	0	0	0	-9.581991480999692	0	87.42296533977621	2.632866899961133	0	0
0.7	0.4902805263628683	37.70069312518747	-93.03340914585806	0	0.9399999998679526	0	45.12844404477504	-10.78497080085758	0	60.15786950034448	1.049952893766087	-5.139205829707796	0	0	45.12844404477504	-10.78497080085758	0	60.15786950034448	1.049952893766087	-5.139205829707796	0	0	7.398625454121251	-8.133570326665632	18.90872491013095	21.90582595843148	-26.32050932264265	-26.65264349092518	24.56812175114375	2.632157990203748	0	0	0	-9.583066229267997	0	87.42365914640763	2.632157990203748	0	0
0.71	0.5434339672671273	37.51894898788495	-93.18677842801998	0	0.9399999998679526	0	45.12836398815985	-10.78325496234072	0	60.1577925712818	1.049951551100653	-5.138808842820019	0	0	45.12836398815985	-10.78325496234072	0	60.1577925712818	1.049951551100653	-5.138808842820019	0	0	6.617469873099902	-8.307874375234441	18.80685314382479	22.61219432341985	-26.45249102560664	-26.24191715081838	24.45106083035793	2.631016888368293	0	0	0	-9.584795598704961	0	87.42477593731569	2.631016888368293	0	0
0.72	0.4919297117738526	37.20215213666521	-93.29250875747917	0	0.9399999998679526	0	45.12830041005719	-10.78189399716625	0	60.15773147586526	1.049950484784477	-5.138494137284974	0	0	45.12830041005719	-10.78189399716625	0	60.15773147586526	1.049950484784477	-5.138494137284974	0	0	5.745771765423425	-8.342901976062498	18.57987329508208	22.88235379065463	-26.68209738818429	-25.74732263146918	24.72557446817127	2.630110550289956	0	0	0	-9.586169270809663	0	87.42566296608649	2.630110550289956	0	0
0.73	0.4820968449419772	37.02832941722656	-93.40822709416427	0	0.9399999998679526	0	45.12826254900785	-10.7810855368161	0	60.15769504549034	1.049949848954486	-5.13830732122704	0	0	45.12826254900785	-10.7810855368161	0	60.15769504549034	1.049949848954486	-5.13830732122704	0	0	5.089251947392534	-8.343716962009429	18.33286505749756	23.22190940378313	-26.7930542922189	-25.44929198702375	24.93102499277617	2.629570504811344	0	0	0	-9.586988164048929	0	87.42619150609195	2.629570504811344	0	0
0.74	0.5330148032732668	36.94955939567327	-93.64460780279846	0	0.9399999998679526	0	45.12818122879392	-10.77934902469806	0	60.15761687008812	1.049948484536324	-5.137906168119498	0	0	45.12818122879392	-10.77934902469806	0	60.15761687008812	1.049948484536324	-5.137906168119498	0	0	4.488207555612354	-8.498169888004078	18.36318728903236	23.85777291819929	-26.88536416909272	-25.13717460246462	24.80617674801498	2.62841084749421	0	0	0	-9.58874616776372	0	87.42732645728586	2.62841084749421	0	0
0.75	0.5583079042166709	37.00549755684976	-93.73930421703213	0	0.9399999998679526	0	45.12815065872107	-10.77870136537197	0	60.15758732326091	1.049947968846905	-5.137756823854999	0	0	45.12815065872107	-10.77870136537197	0	60.15758732326091	1.049947968846905	-5.137756823854999	0	0	4.059177265579465	-8.881317401564907	18.80573695556561	24.24081803657603	-26.90377928786457	-25.57561642850513	24.69778662233529	2.62797395592702	0	0	0	-9.589409674723301	0	87.42775404119702	2.62797395592702	0	0
0.76	0.6562075142928332	36.81887165731649	-93.70596295590128	0	0.9399999998679526	0	45.12808825887862	-10.77740099547027	0	60.15752622377779	1.049946902459753	-5.137457936432456	0	0	45.12808825887862	-10.77740099547027	0	60.15752622377779	1.049946902459753	-5.137457936432456	0	0	3.493301600680525	-9.35772252685336	19.1143058662161	24.36516350157637	-26.92037506762561	-26.35826641213279	24.73181151822419	2.627077649127964	0	0	0	-9.59077672359426	0	87.42863125367526	2.627077649127964	0	0
0.77	0.6712742952807728	36.56357106264696	-93.35763561224117	0	0.9399999998679526	0	45.12805458137814	-10.77672073122197	0	60.15749246187566	1.0499463132034	-5.137302550303334	0	0	45.12805458137814	-10.77672073122197	0	60.15749246187566	1.0499463132034	-5.137302550303334	0	0	2.849080025724672	-9.676423963347192	19.11586540947904	24.49939562134463	-27.06235990287457	-27.07145554120232	24.71599837909475	2.626589413928675	0	0	0	-9.591527133941755	0	87.4291090886648	2.626589413928675	0	0
0.78	0.7467421448459024	36.43175387538324	-93.36971161144315	0	0.9399999998679526	0	45.12798504807404	-10.77528507937889	0	60.15742395082664	1.04994511746002	-5.136973268893831	0	0	45.12798504807404	-10.77528507937889	0	60.15742395082664	1.04994511746002	-5.136973268893831	0	0	2.53525653723755	-10.01774467523415	19.49847361099182	24.31144313071459	-27.08820627783484	-27.96140258733229	24.85158407215635	2.625588068413137	0	0	0	-9.593057637805494	0	87.43008910266997	2.625588068413137	0	0
0.79	0.9059584362938988	36.04827909112694	-93.66748493259738	0	0.9399999998679526	0	45.12791875705275	-10.77390932121624	0	60.15735897885075	1.049943983485119	-5.136657538838918	0	0	45.12791875705275	-10.77390932121624	0	60.15735897885075	1.049943983485119	-5.136657538838918	0	0	2.011091858857244	-10.46231323178102	20.27506240003519	24.36641697977964	-27.21764433463243	-28.82483684572957	24.70124565076923	2.624635235430241	0	0	0	-9.594511572322187	0	87.43102163726832	2.624635235430241	0	0
0.8	0.9434548635559574	35.96178353190152	-93.58750866453305	0	0.9399999998679526	0	45.1278800416059	-10.77309544807695	0	60.15732145962522	1.049943328651101	-5.136470359993165	0	0	45.1278800416059	-10.77309544807695	0	60.15732145962522	1.049943328651101	-5.136470359993165	0	0	1.646364474626559	-10.87979884924659	20.79776186141377	24.31610155945054	-27.61281387700678	-29.66030795129625	24.71681337439782	2.624081115762432	0	0	0	-9.595354042490547	0	87.43156395198832	2.624081115762432	0	0
0.8100000000000001	1.034178501796873	35.97113223904451	-93.6004390471802	0	0.9399999998679526	0	45.1278128665292	-10.77167872403423	0	60.15725657494716	1.049942196199835	-5.136144408324959	0	0	45.1278128665292	-10.77167872403423	0	60.15725657494716	1.049942196199835	-5.136144408324959	0	0	1.584808873829834	-11.28614107128877	21.40997613045376	23.97156576648653	-27.9456183143036	-30.63435953764582	24.56071534384408	2.623120797757831	0	0	0	-9.596812590165039	0	87.4325038112076	2.623120797757831	0	0
0.82	1.231324757024017	35.75598557695847	-93.92082124081634	0	0.9399999998679526	0	45.12775109526686	-10.77038277656416	0	60.1571967149626	1.049941151446014	-5.135846634198819	0	0	45.12775109526686	-10.77038277656416	0	60.1571967149626	1.049941151446014	-5.135846634198819	0	0	1.363847915461439	-11.90142475992597	22.52167485705598	23.62257173012976	-28.26784800086478	-31.80163975390391	24.31616752069282	2.622236522890261	0	0	0	-9.598157142061961	0	87.43336924755368	2.622236522890261	0	0
0.83	1.349664401345663	35.62215699361924	-94.1744624921451	0	0.9399999998679526	0	45.12768440901381	-10.76898323637223	0	60.15713217002802	1.04994002492439	-5.135525133093362	0	0	45.12768440901381	-10.76898323637223	0	60.15713217002802	1.04994002492439	-5.135525133093362	0	0	1.37667609210707	-13.00278092986563	24.80120894321978	22.5680313163657	-28.45846988536753	-34.51799495762684	24.16524395428587	2.621282223087429	0	0	0	-9.599607679892175	0	87.43430321697468	2.621282223087429	0	0
0.84	1.402596063758064	35.54940075047777	-94.22486398344415	0	0.9399999998679526	0	45.12762015796618	-10.76763284269675	0	60.15707011495008	1.049938941858963	-5.135214932572624	0	0	45.12762015796618	-10.76763284269675	0	60.15707011495008	1.049938941858963	-5.135214932572624	0	0	1.172792193615007	-13.65177146362046	25.83721742881304	22.24866212870992	-28.74799114185659	-35.80236588576923	23.90110250438998	2.620363420532198	0	0	0	-9.601003368955832	0	87.43520244526805	2.620363420532198	0	0
